<?xml version="1.0" encoding="UTF-8"?>
<svg id="Layer_1" data-name="Layer 1" xmlns="http://www.w3.org/2000/svg" viewBox="0 0 32 40">
  <defs>
    <style>
      .cls-1 {
        fill: #fff;
      }

      .cls-2 {
        fill: #ff8282;
      }
    </style>
  </defs>
  <path class="cls-2" d="m16,40c-5.37-4.57-9.38-8.81-12.03-12.73S0,19.73,0,16.4C0,11.4,1.61,7.42,4.83,4.45,8.04,1.48,11.77,0,16,0s7.96,1.48,11.18,4.45c3.22,2.97,4.83,6.95,4.83,11.95,0,3.33-1.33,6.96-3.98,10.88s-6.66,8.16-12.03,12.73Z"/>
  <path class="cls-1" d="m13.28,26.84c-.19.05-.36.03-.5-.08s-.21-.25-.21-.45c0-.11.03-.21.08-.32s.12-.19.21-.26l1.82-1.37v-6.62l-8.25,2.43c-.26.09-.49.06-.69-.08s-.29-.36-.29-.66c0-.14.04-.29.12-.44s.18-.26.3-.33l8.81-5.17v-6.22c0-.37.13-.68.38-.94s.57-.38.94-.38.68.13.94.38c.25.25.38.57.38.94v6.22l8.81,5.17c.12.07.22.18.3.34s.12.31.12.45c0,.28-.1.49-.29.63s-.42.17-.69.08l-8.25-2.43v6.62l1.82,1.37c.09.07.16.16.21.26s.08.21.08.32c0,.19-.07.34-.21.45s-.31.13-.5.08l-2.72-.76-2.72.76Z"/>
</svg>